<?xml version="1.0" ?><!DOCTYPE svg  PUBLIC '-//W3C//DTD SVG 1.1//EN'  'http://www.w3.org/Graphics/SVG/1.1/DTD/svg11.dtd'><svg enable-background="new 0 0 24 24" height="24px" id="Layer_1" version="1.1" viewBox="0 0 24 24" width="24px" xml:space="preserve" xmlns="http://www.w3.org/2000/svg" xmlns:xlink="http://www.w3.org/1999/xlink"><g id="icon"><circle cx="12" cy="12" fill="#FF6A36" r="11"/><path d="M7.615,14.9542c-0.0228,-0.0225,-0.0398,-0.0736,-0.0398,-0.1079c0,-0.0398,-0.0228,-0.3852,-0.0511,-0.7706l-0.0511,-0.7031l0.0568,-1.2411c0.0566,-1.2639,0.0623,-1.3092,0.1587,-1.3092c0.017,0,0.0511,0.0113,0.0738,0.034c0.034,0.0283,0.0511,0.187,0.1076,1.2524l0.0681,1.2241l-0.0681,0.7991c-0.0398,0.442,-0.0793,0.8162,-0.0964,0.8329c-0.0398,0.0456,-0.1079,0.0398,-0.1587,-0.0055L7.615,14.9542L7.615,14.9542zM8.1929,14.9374c-0.0283,-0.0398,-0.0511,-0.2778,-0.0906,-0.8502c-0.0453,-0.6803,-0.0511,-0.873,-0.0283,-1.3828c0.0113,-0.3234,0.034,-0.9636,0.0511,-1.4229c0.017,-0.459,0.034,-0.8615,0.0398,-0.9067c0.0228,-0.1474,0.1927,-0.1699,0.2268,-0.0283c0.0058,0.0283,0.0398,0.714,0.0738,1.5187l0.0623,1.4681l-0.0623,0.7596c-0.0221,0.2625,-0.0428,0.5252,-0.0623,0.7879c0,0.045,-0.0738,0.1076,-0.1246,0.1076c-0.0285,0,-0.0623,-0.0228,-0.0851,-0.0566v0.0055L8.1929,14.9374zM8.7826,14.9487c-0.0398,-0.0398,-0.0511,-0.1021,-0.0623,-0.3967c-0.0115,-0.1927,-0.0286,-0.4818,-0.0398,-0.6405c-0.034,-0.4022,-0.0285,-0.9238,0.0113,-2.1652c0.0228,-0.5891,0.0398,-1.1843,0.0398,-1.3317c0.0058,-0.3003,0.0286,-0.3909,0.1079,-0.4137c0.0964,-0.0228,0.1699,0.0453,0.1699,0.1644c0,0.0568,0.0283,0.7934,0.0568,1.6323l0.0568,1.5247l-0.0568,0.7651c-0.0285,0.4192,-0.0568,0.7764,-0.0568,0.7936c0,0.045,-0.0738,0.1076,-0.1304,0.1076c-0.0283,0,-0.0681,-0.0228,-0.0964,-0.0453V14.9487L8.7826,14.9487zM9.372,14.9487c-0.0283,-0.034,-0.0453,-0.1021,-0.0568,-0.2097c-0.0851,-1.2922,-0.0851,-1.383,-0.0453,-2.7318c0.0511,-1.8588,0.0623,-2.0348,0.1076,-2.0801c0.0453,-0.0453,0.1702,-0.0453,0.2097,0c0.0228,0.0228,0.0398,0.3514,0.0681,1.0882c0.0681,2.0573,0.0738,2.3859,0.0283,3.0604c-0.0511,0.7651,-0.0566,0.8329,-0.1076,0.8782c-0.0511,0.0511,-0.1417,0.0456,-0.1985,-0.0113L9.372,14.9487L9.372,14.9487zM9.9614,14.9429c-0.0283,-0.0285,-0.0511,-0.0906,-0.0511,-0.1304c0,-0.0398,-0.017,-0.3797,-0.0398,-0.7538c-0.0398,-0.6289,-0.0398,-0.8049,0,-2.3293c0.0453,-1.7682,0.0453,-1.7399,0.1757,-1.7682c0.1134,-0.0228,0.1872,0.0736,0.1872,0.2493c0,0.0793,0.0113,0.493,0.0228,0.9125c0.0113,0.4195,0.0283,1.0597,0.0398,1.4229c0.0058,0.3572,0.017,0.6687,0.0228,0.6858c0.0058,0.017,-0.0115,0.3739,-0.0398,0.7934c-0.0192,0.272,-0.0362,0.5442,-0.0511,0.8164c0,0.0678,-0.0906,0.1587,-0.1699,0.1587c-0.0421,-0.0036,-0.0809,-0.0241,-0.1076,-0.0568h0.011V14.9429zM10.5678,14.9487c-0.0511,-0.0511,-0.0568,-0.1134,-0.1076,-1.0201c-0.0283,-0.5271,-0.0228,-1.0824,0.0283,-2.8792c0.0286,-0.9633,0.0286,-0.9803,0.1815,-0.9803c0.0511,0,0.1021,0.017,0.1304,0.0511c0.0511,0.0511,0.0511,0.0906,0.0736,0.918c0.0058,0.2605,0.0285,0.8955,0.0398,1.4056c0.0228,0.8329,0.0228,1.0089,-0.0228,1.6946c-0.0453,0.7368,-0.0511,0.7651,-0.1076,0.8104c-0.0738,0.0566,-0.1644,0.0566,-0.2268,0H10.5678L10.5678,14.9487zM11.1685,14.9487c-0.034,-0.034,-0.0511,-0.0964,-0.0623,-0.2097c-0.0398,-0.4365,-0.0681,-1.5189,-0.0568,-2.1594c0.0058,-0.3967,0.0228,-1.0031,0.0286,-1.3603c0.0283,-1.4338,0.0398,-1.6603,0.0906,-1.7114c0.0623,-0.0623,0.1869,-0.0623,0.2438,0c0.0623,0.0623,0.0681,0.2438,0.1246,3.0096c0.017,0.8332,-0.0398,2.2953,-0.0964,2.3971c-0.0511,0.0966,-0.1985,0.1134,-0.2778,0.034L11.1685,14.9487L11.1685,14.9487zM11.7864,14.9429c-0.0418,-0.0321,-0.0701,-0.0786,-0.0793,-0.1304c-0.0058,-0.0456,-0.0286,-0.414,-0.0511,-0.8219c-0.0283,-0.5836,-0.034,-0.935,-0.017,-1.6493c0.0115,-0.4985,0.0286,-1.3259,0.0398,-1.836c0.017,-1.1675,0.0285,-1.2809,0.0964,-1.349c0.0738,-0.0681,0.1815,-0.0623,0.2608,0.0113c0.0568,0.0568,0.0623,0.0793,0.0681,0.3684c0,0.1699,0.0058,0.3399,0.0113,0.3739c0.0055,0.034,0.0115,0.5158,0.0228,1.0709c0.0115,0.5554,0.0228,1.0146,0.0285,1.0204c0.0283,0.0453,0.0058,1.6889,-0.0285,2.1989c-0.0155,0.2077,-0.0288,0.4155,-0.0398,0.6234c0,0.0623,-0.1134,0.1699,-0.1869,0.1699C11.877,14.994,11.8202,14.9715,11.7864,14.9429L11.7864,14.9429zM12.336,14.9316l-0.0626,-0.0626v-5.86l0.0681,-0.0511c0.0793,-0.0623,0.3797,-0.1587,0.6803,-0.221c0.3231,-0.0623,0.8502,-0.0568,1.1846,0.0113c1.3372,0.2778,2.2895,1.3037,2.505,2.6977l0.017,0.0906l0.2213,-0.0623c0.187,-0.0511,0.255,-0.0623,0.4985,-0.0511c0.3459,0.017,0.3626,0.017,0.5891,0.1018c0.9979,0.3797,1.4509,1.5302,0.9693,2.4825c-0.2213,0.442,-0.5386,0.7195,-1.0204,0.8955l-0.1812,0.0681l-2.6977,0.0058l-2.6977,0.0058L12.336,14.9316L12.336,14.9316zM7.0199,14.9089c-0.0113,-0.0283,-0.0453,-0.4025,-0.0793,-0.8277c-0.0568,-0.7481,-0.0568,-0.7821,-0.017,-1.2579c0.0228,-0.2666,0.0456,-0.5952,0.0568,-0.7256c0.017,-0.238,0.0568,-0.3517,0.1191,-0.3517c0.0793,0,0.1021,0.0909,0.1702,0.8107l0.0681,0.7368l-0.0681,0.7824c-0.034,0.4305,-0.0738,0.8049,-0.0851,0.8387c-0.0113,0.0398,-0.0398,0.0568,-0.0851,0.0568c-0.0453,0,-0.0681,-0.017,-0.0851,-0.0568L7.0199,14.9089L7.0199,14.9089zM6.4533,14.9204c-0.0058,-0.0115,-0.0453,-0.3742,-0.0793,-0.8049l-0.0681,-0.7824l0.0681,-0.8104c0.034,-0.4477,0.0793,-0.8277,0.0909,-0.8444c0.034,-0.0398,0.0851,-0.0398,0.1191,0c0.017,0.017,0.0623,0.3912,0.1021,0.8389l0.0736,0.8049l-0.0736,0.7821c-0.0398,0.4307,-0.0793,0.7936,-0.0851,0.8104c-0.0113,0.034,-0.1304,0.0456,-0.1474,0.0113v-0.0055H6.4533zM5.8921,14.8581c-0.0113,-0.017,-0.0511,-0.3626,-0.0851,-0.7709l-0.0681,-0.7426l0.0623,-0.7028c0.034,-0.3852,0.0681,-0.7538,0.0736,-0.8104c0.017,-0.1134,0.0681,-0.1587,0.1191,-0.1079c0.017,0.017,0.0623,0.3514,0.1079,0.7991l0.0793,0.7709l-0.0738,0.7426c-0.0398,0.4079,-0.0851,0.7651,-0.0964,0.7989c-0.0283,0.0626,-0.0851,0.0738,-0.1191,0.0286v-0.0055H5.8921zM5.3198,14.6201c-0.0058,-0.0228,-0.0453,-0.3344,-0.0793,-0.6858l-0.0681,-0.6405l0.0736,-0.6517c0.0681,-0.6234,0.0793,-0.6517,0.1304,-0.663c0.0623,-0.0115,0.0566,-0.0398,0.1587,0.7481l0.0736,0.5891l-0.0736,0.618c-0.0398,0.3401,-0.0851,0.6405,-0.0964,0.6742c-0.0286,0.0681,-0.0909,0.0741,-0.1079,0.0115H5.3198L5.3198,14.6201zM4.7927,14.1438c-0.0268,-0.141,-0.0495,-0.2827,-0.0681,-0.425l-0.0511,-0.3854l0.0568,-0.4079c0.0283,-0.2268,0.0681,-0.4252,0.0793,-0.442c0.0566,-0.0681,0.0964,0.0398,0.1529,0.442l0.0623,0.4079l-0.0623,0.4079c-0.034,0.2268,-0.0793,0.4192,-0.0964,0.4307c-0.0453,0.0283,-0.0623,0.0228,-0.0793,-0.0228L4.7927,14.1438L4.7927,14.1438z" fill="#FFFFFF"/><path d="M4.2218,19.7782C6.2124,21.7688,8.9624,23,12,23c6.0751,0,11,-4.9249,11,-11c0,-3.0376,-1.2312,-5.7876,-3.2218,-7.7782L4.2218,19.7782z" fill="#231F20" opacity="0.1"/></g></svg>